<svg width="28" height="28" viewBox="0 0 28 28" fill="none" xmlns="http://www.w3.org/2000/svg">
<g clip-path="url(#clip0_9_2)">
<path d="M27.3307 11.3356H26.0007V16.6644H27.3307V11.3356Z" fill="white" fill-opacity="0.8"/>
<path d="M8.66688 11.3356H9.99688V9.99685H11.3356V8.66685H16.6644V9.99685H18.0031V8.66685H22.0019V9.99685H23.3319V20.6631H24.6706V18.0031H26.0006V16.6643H24.6706V11.3356H26.0006V9.99685H24.6706V4.6681H23.3319V5.9981H22.0019V4.6681H19.3331V3.32935H9.99688V4.6681H8.66688V5.9981H7.33688V8.66685H5.99813V4.6681H4.66813V8.66685H3.33813V9.99685H8.66688V11.3356Z" fill="white" fill-opacity="0.8"/>
<path d="M23.332 20.6631H22.002V22.0019H23.332V20.6631Z" fill="white" fill-opacity="0.8"/>
<path d="M23.332 3.32935H22.002V4.6681H23.332V3.32935Z" fill="white" fill-opacity="0.8"/>
<path d="M22.0018 18.0031H20.6631V19.3331H22.0018V18.0031Z" fill="white" fill-opacity="0.8"/>
<path d="M22.0018 13.9956H20.6631V16.6644H22.0018V13.9956Z" fill="white" fill-opacity="0.8"/>
<path d="M22.0018 1.99939H20.6631V3.32939H22.0018V1.99939Z" fill="white" fill-opacity="0.8"/>
<path d="M9.99696 22.0019V24.675H7.33696V26.005H4.66821V27.335H26.0007V26.005H23.332V24.675H20.6632V23.3363H22.002V22.0063L9.99696 22.0019ZM19.3332 26.0006H14.0045V24.675H11.3357V23.3363H19.3376L19.3332 26.0006Z" fill="white" fill-opacity="0.8"/>
<path d="M20.6633 19.3331H16.6646V20.6631H20.6633V19.3331Z" fill="white" fill-opacity="0.8"/>
<path d="M16.6645 18.0031H15.3345V19.3331H16.6645V18.0031Z" fill="white" fill-opacity="0.8"/>
<path d="M15.3344 13.9956H14.0044V16.6644H15.3344V13.9956Z" fill="white" fill-opacity="0.8"/>
<path d="M16.6644 9.99689H14.0044V11.3356H16.6644V9.99689Z" fill="white" fill-opacity="0.8"/>
<path d="M11.3356 11.3356H9.99683V16.6644H11.3356V11.3356Z" fill="white" fill-opacity="0.8"/>
<path d="M20.6632 0.669373H8.66699V1.99937H20.6632V0.669373Z" fill="white" fill-opacity="0.8"/>
<path d="M9.99699 20.6631H8.66699V22.0019H9.99699V20.6631Z" fill="white" fill-opacity="0.8"/>
<path d="M9.99699 16.6644H8.66699V18.0031H9.99699V16.6644Z" fill="white" fill-opacity="0.8"/>
<path d="M3.33813 18.0031V19.3331H7.33688V20.6631H8.66688V18.0031H3.33813Z" fill="white" fill-opacity="0.8"/>
<path d="M8.66691 1.99939H7.33691V3.32939H8.66691V1.99939Z" fill="white" fill-opacity="0.8"/>
<path d="M7.33704 3.32935H5.99829V4.6681H7.33704V3.32935Z" fill="white" fill-opacity="0.8"/>
<path d="M5.99821 11.3356H4.66821V12.6656H5.99821V11.3356Z" fill="white" fill-opacity="0.8"/>
<path d="M4.66813 12.6656H3.33813V15.3344H4.66813V12.6656Z" fill="white" fill-opacity="0.8"/>
<path d="M3.33826 16.6644H1.99951V18.0031H3.33826V16.6644Z" fill="white" fill-opacity="0.8"/>
<path d="M3.33826 9.99689H1.99951V11.3356H3.33826V9.99689Z" fill="white" fill-opacity="0.8"/>
<path d="M1.99943 11.3356H0.669434V16.6644H1.99943V11.3356Z" fill="white" fill-opacity="0.8"/>
</g>
<defs>
<clipPath id="clip0_9_2">
<rect width="28" height="28" fill="white"/>
</clipPath>
</defs>
</svg>
