<svg width="24" height="24" viewBox="0 0 24 24" fill="none" xmlns="http://www.w3.org/2000/svg">
<path d="M22.8523 13.71V5.71497H21.7123V12.57H20.5723V11.43H19.4248V20.5725H20.5723V19.425H22.8523V18.285H23.9998V13.71H22.8523Z" fill="#D1CFCC"/>
<path d="M19.4249 9.14252H18.2849V11.43H19.4249V9.14252Z" fill="#D1CFCC"/>
<path d="M4.56763 20.5725V21.7125H5.71513V22.86H6.85513V21.7125H17.1376V22.86H18.2851V21.7125H19.4251V20.5725H4.56763Z" fill="#D1CFCC"/>
<path d="M18.2852 13.71H17.1377V15.9975H18.2852V13.71Z" fill="#D1CFCC"/>
<path d="M18.2852 8.0025H17.1377V9.1425H18.2852V8.0025Z" fill="#D1CFCC"/>
<path d="M17.1374 12.57H14.8574V13.71H17.1374V12.57Z" fill="#D1CFCC"/>
<path d="M17.1375 22.86H6.85498V24H17.1375V22.86Z" fill="#D1CFCC"/>
<path d="M17.1374 15.9975H14.8574V17.145H17.1374V15.9975Z" fill="#D1CFCC"/>
<path d="M14.8575 13.71H13.71V15.9975H14.8575V13.71Z" fill="#D1CFCC"/>
<path d="M14.8575 1.14001H13.71V2.28751H14.8575V1.14001Z" fill="#D1CFCC"/>
<path d="M13.71 18.285H10.2825V19.425H13.71V18.285Z" fill="#D1CFCC"/>
<path d="M13.71 0H10.2825V1.14H13.71V0Z" fill="#D1CFCC"/>
<path d="M10.2826 13.71H9.14258V15.9975H10.2826V13.71Z" fill="#D1CFCC"/>
<path d="M10.2826 1.14001H9.14258V2.28751H10.2826V1.14001Z" fill="#D1CFCC"/>
<path d="M9.14248 12.57H6.85498V13.71H9.14248V12.57Z" fill="#D1CFCC"/>
<path d="M17.1375 8.00248V6.85498H12.57V3.42748H13.71V2.28748H10.2825V3.42748H11.4225V6.85498H6.85498V8.00248H17.1375Z" fill="#D1CFCC"/>
<path d="M9.14248 15.9975H6.85498V17.145H9.14248V15.9975Z" fill="#D1CFCC"/>
<path d="M6.85509 13.71H5.71509V15.9975H6.85509V13.71Z" fill="#D1CFCC"/>
<path d="M6.85509 8.0025H5.71509V9.1425H6.85509V8.0025Z" fill="#D1CFCC"/>
<path d="M5.71513 9.14252H4.56763V11.43H5.71513V9.14252Z" fill="#D1CFCC"/>
<path d="M4.5675 11.43H3.4275V12.57H2.28V5.71497H1.14V13.71H0V18.285H1.14V19.425H3.4275V20.5725H4.5675V11.43Z" fill="#D1CFCC"/>
</svg>
