<svg width="24" height="24" viewBox="0 0 24 24" fill="none" xmlns="http://www.w3.org/2000/svg">
<g clip-path="url(#clip0_11_53)">
<path d="M22.8527 5.70752H21.7127V7.99502H19.4252V9.14252H17.1377V10.2825H19.4252V13.71H18.2852V14.8575H19.4252V17.1375H20.5652V9.14252H21.7127V19.425H20.5652V24H24.0002V19.425H22.8527V5.70752Z" fill="#D1CFCC"/>
<path d="M21.7123 4.5675H19.4248V5.7075H21.7123V4.5675Z" fill="#D1CFCC"/>
<path d="M19.4249 17.1375H18.2849V18.285H19.4249V17.1375Z" fill="#D1CFCC"/>
<path d="M19.4251 6.85498H14.8501V7.99498H19.4251V6.85498Z" fill="#D1CFCC"/>
<path d="M19.4252 3.42749H17.1377V4.56749H19.4252V3.42749Z" fill="#D1CFCC"/>
<path d="M18.2851 18.285H15.9976V19.425H18.2851V18.285Z" fill="#D1CFCC"/>
<path d="M18.2851 14.8575H15.9976V15.9975H18.2851V14.8575Z" fill="#D1CFCC"/>
<path d="M17.1376 10.2825H14.8501V11.4225H17.1376V10.2825Z" fill="#D1CFCC"/>
<path d="M17.1376 2.27997H14.8501V3.42747H17.1376V2.27997Z" fill="#D1CFCC"/>
<path d="M15.9975 19.425H6.85498V20.565H15.9975V19.425Z" fill="#D1CFCC"/>
<path d="M15.9975 15.9975H6.85498V17.1375H15.9975V15.9975Z" fill="#D1CFCC"/>
<path d="M14.8501 11.4225H12.5701V12.57H14.8501V11.4225Z" fill="#D1CFCC"/>
<path d="M14.85 5.70752H10.2825V6.85502H14.85V5.70752Z" fill="#D1CFCC"/>
<path d="M14.8501 1.14001H12.5701V2.28001H14.8501V1.14001Z" fill="#D1CFCC"/>
<path d="M12.57 0H10.2825V1.14H12.57V0Z" fill="#D1CFCC"/>
<path d="M12.57 12.57H10.2825V13.71H12.57V12.57Z" fill="#D1CFCC"/>
<path d="M10.2824 1.14001H7.99487V2.28001H10.2824V1.14001Z" fill="#D1CFCC"/>
<path d="M10.2824 11.4225H7.99487V12.57H10.2824V11.4225Z" fill="#D1CFCC"/>
<path d="M7.99502 2.27997H5.70752V3.42747H7.99502V2.27997Z" fill="#D1CFCC"/>
<path d="M6.85513 18.285H4.56763V19.425H6.85513V18.285Z" fill="#D1CFCC"/>
<path d="M6.85513 14.8575H4.56763V15.9975H6.85513V14.8575Z" fill="#D1CFCC"/>
<path d="M7.99502 10.2825H5.70752V11.4225H7.99502V10.2825Z" fill="#D1CFCC"/>
<path d="M5.70749 3.42749H3.42749V4.56749H5.70749V3.42749Z" fill="#D1CFCC"/>
<path d="M4.56749 17.1375H3.42749V18.285H4.56749V17.1375Z" fill="#D1CFCC"/>
<path d="M4.56764 14.8575V13.71H3.42764V10.2825H5.70764V9.14249H3.42764V7.995H1.14014V9.14249H2.28014V17.1375H3.42764V14.8575H4.56764Z" fill="#D1CFCC"/>
<path d="M3.42764 4.5675H1.14014V5.7075H3.42764V4.5675Z" fill="#D1CFCC"/>
<path d="M1.14 5.70752H0V7.99502H1.14V5.70752Z" fill="#D1CFCC"/>
</g>
<defs>
<clipPath id="clip0_11_53">
<rect width="24" height="24" fill="white"/>
</clipPath>
</defs>
</svg>
